<?xml version="1.0" encoding="UTF-8"?>
<!-- http://code.google.com/p/vector-playing-cards/ -->
<svg width="167.09pt" height="242.67pt" version="1.1" viewBox="0 0 167.09 242.67" xml:space="preserve" xmlns="http://www.w3.org/2000/svg" xmlns:cc="http://creativecommons.org/ns#" xmlns:dc="http://purl.org/dc/elements/1.1/" xmlns:rdf="http://www.w3.org/1999/02/22-rdf-syntax-ns#" xmlns:xlink="http://www.w3.org/1999/xlink"><metadata><rdf:RDF><cc:Work rdf:about=""><dc:format>image/svg+xml</dc:format><dc:type rdf:resource="http://purl.org/dc/dcmitype/StillImage"/><dc:title/></cc:Work></rdf:RDF></metadata><defs>
		
		
		
		
		
		
	<clipPath id="clipPath1032"><path d="m72.023 77.196v10.692h18.514v-10.692z" opacity=".527" style="paint-order:stroke fill markers"/></clipPath><clipPath id="clipPath4000"><path d="m177.58 246.18c0 3.6458-2.9409 6.6298-6.5462 6.6298h-145.63c-3.5964 0-6.5364-2.9841-6.5364-6.6298v-220.47c0-3.6457 2.94-6.6308 6.5364-6.6308h145.63c3.6052 0 6.5462 2.985 6.5462 6.6308z" fill="#fff" stroke="#000" stroke-width=".4797"/></clipPath></defs><g>
	<path d="m166.84 235.55c0 3.7774-3.0869 6.8691-6.8711 6.8691h-152.85c-3.7749 0-6.8608-3.0918-6.8608-6.8691v-228.43c0-3.7773 3.0859-6.8701 6.8608-6.8701h152.85c3.7842 0 6.8711 3.0928 6.8711 6.8701z" fill="#fff" stroke="#000" stroke-width=".50025"/>
			
			
		
			
			
		
			
			
		






</g><g transform="translate(-14.678 -14.613)" clip-path="url(#clipPath4000)"><g id="g1018" transform="matrix(1.3669 0 0 1.3669 -87.986 -90.903)" clip-path="url(#clipPath1032)"><path transform="scale(.75)" d="m104.26 100.55-4.1152 2.377 8.2285 4.75 8.2285-4.75-4.1152-2.377-4.1133 2.375z" fill="#ffd5d5" style="paint-order:stroke fill markers"/><path d="m78.194 86.103 3.0871 1.7816-4.79e-4 -7.1258-6.1709-3.5633-6.59e-4 3.5643 3.0851 1.781z" fill="#f00" style="paint-order:stroke fill markers"/><path d="m87.452 80.76-6.59e-4 -3.5643-6.1709 3.5633-4.79e-4 7.1258 3.0871-1.7816-1.28e-4 -3.5623z" fill="#500" style="paint-order:stroke fill markers"/><g transform="translate(-9.257 5.347)"><path transform="scale(.75)" d="m104.26 100.55-4.1152 2.377 8.2285 4.75 8.2285-4.75-4.1152-2.377-4.1133 2.375z" fill="#ffd5d5" style="paint-order:stroke fill markers"/><path d="m78.194 86.103 3.0871 1.7816-4.79e-4 -7.1258-6.1709-3.5633-6.59e-4 3.5643 3.0851 1.781z" fill="#f00" style="paint-order:stroke fill markers"/><path d="m87.452 80.76-6.59e-4 -3.5643-6.1709 3.5633-4.79e-4 7.1258 3.0871-1.7816-1.28e-4 -3.5623z" fill="#500" style="paint-order:stroke fill markers"/></g><g transform="translate(-.000958 10.691)"><path transform="scale(.75)" d="m104.26 100.55-4.1152 2.377 8.2285 4.75 8.2285-4.75-4.1152-2.377-4.1133 2.375z" fill="#ffd5d5" style="paint-order:stroke fill markers"/><path d="m78.194 86.103 3.0871 1.7816-4.79e-4 -7.1258-6.1709-3.5633-6.59e-4 3.5643 3.0851 1.781z" fill="#f00" style="paint-order:stroke fill markers"/><path d="m87.452 80.76-6.59e-4 -3.5643-6.1709 3.5633-4.79e-4 7.1258 3.0871-1.7816-1.28e-4 -3.5623z" fill="#500" style="paint-order:stroke fill markers"/></g><g transform="translate(9.2561 5.347)"><path transform="scale(.75)" d="m104.26 100.55-4.1152 2.377 8.2285 4.75 8.2285-4.75-4.1152-2.377-4.1133 2.375z" fill="#ffd5d5" style="paint-order:stroke fill markers"/><path d="m78.194 86.103 3.0871 1.7816-4.79e-4 -7.1258-6.1709-3.5633-6.59e-4 3.5643 3.0851 1.781z" fill="#f00" style="paint-order:stroke fill markers"/><path d="m87.452 80.76-6.59e-4 -3.5643-6.1709 3.5633-4.79e-4 7.1258 3.0871-1.7816-1.28e-4 -3.5623z" fill="#500" style="paint-order:stroke fill markers"/></g><g transform="translate(9.2574 -5.3453)"><path transform="scale(.75)" d="m104.26 100.55-4.1152 2.377 8.2285 4.75 8.2285-4.75-4.1152-2.377-4.1133 2.375z" fill="#ffd5d5" style="paint-order:stroke fill markers"/><path d="m78.194 86.103 3.0871 1.7816-4.79e-4 -7.1258-6.1709-3.5633-6.59e-4 3.5643 3.0851 1.781z" fill="#f00" style="paint-order:stroke fill markers"/><path d="m87.452 80.76-6.59e-4 -3.5643-6.1709 3.5633-4.79e-4 7.1258 3.0871-1.7816-1.28e-4 -3.5623z" fill="#500" style="paint-order:stroke fill markers"/></g><g transform="translate(0 -10.691)"><path transform="scale(.75)" d="m104.26 100.55-4.1152 2.377 8.2285 4.75 8.2285-4.75-4.1152-2.377-4.1133 2.375z" fill="#ffd5d5" style="paint-order:stroke fill markers"/><path d="m78.194 86.103 3.0871 1.7816-4.79e-4 -7.1258-6.1709-3.5633-6.59e-4 3.5643 3.0851 1.781z" fill="#f00" style="paint-order:stroke fill markers"/><path d="m87.452 80.76-6.59e-4 -3.5643-6.1709 3.5633-4.79e-4 7.1258 3.0871-1.7816-1.28e-4 -3.5623z" fill="#500" style="paint-order:stroke fill markers"/></g><g transform="translate(-9.2574 -5.3453)"><path transform="scale(.75)" d="m104.26 100.55-4.1152 2.377 8.2285 4.75 8.2285-4.75-4.1152-2.377-4.1133 2.375z" fill="#ffd5d5" style="paint-order:stroke fill markers"/><path d="m78.194 86.103 3.0871 1.7816-4.79e-4 -7.1258-6.1709-3.5633-6.59e-4 3.5643 3.0851 1.781z" fill="#f00" style="paint-order:stroke fill markers"/><path d="m87.452 80.76-6.59e-4 -3.5643-6.1709 3.5633-4.79e-4 7.1258 3.0871-1.7816-1.28e-4 -3.5623z" fill="#500" style="paint-order:stroke fill markers"/></g></g><use width="100%" height="100%" xlink:href="#g1018"/><use transform="translate(0 14.614)" width="100%" height="100%" xlink:href="#g1018"/><use transform="translate(0 29.229)" width="100%" height="100%" xlink:href="#g1018"/><use transform="translate(0 43.843)" width="100%" height="100%" xlink:href="#g1018"/><use transform="translate(0 58.457)" width="100%" height="100%" xlink:href="#g1018"/><use transform="translate(0 73.072)" width="100%" height="100%" xlink:href="#g1018"/><use transform="translate(0 87.686)" width="100%" height="100%" xlink:href="#g1018"/><use transform="translate(0 102.3)" width="100%" height="100%" xlink:href="#g1018"/><use transform="translate(0 116.91)" width="100%" height="100%" xlink:href="#g1018"/><use transform="translate(0 131.53)" width="100%" height="100%" xlink:href="#g1018"/><use transform="translate(0 146.14)" width="100%" height="100%" xlink:href="#g1018"/><use transform="translate(0 160.76)" width="100%" height="100%" xlink:href="#g1018"/><use transform="translate(0 175.37)" width="100%" height="100%" xlink:href="#g1018"/><use transform="translate(0 189.99)" width="100%" height="100%" xlink:href="#g1018"/><use transform="translate(0 204.6)" width="100%" height="100%" xlink:href="#g1018"/><use transform="translate(0 219.21)" width="100%" height="100%" xlink:href="#g1018"/><use transform="translate(0 233.83)" width="100%" height="100%" xlink:href="#g1018"/><use transform="translate(0 248.44)" width="100%" height="100%" xlink:href="#g1018"/><use transform="translate(25.306)" width="100%" height="100%" xlink:href="#g1018"/><use transform="translate(25.306 14.614)" width="100%" height="100%" xlink:href="#g1018"/><use transform="translate(25.306 29.229)" width="100%" height="100%" xlink:href="#g1018"/><use transform="translate(25.306 43.843)" width="100%" height="100%" xlink:href="#g1018"/><use transform="translate(25.306 58.457)" width="100%" height="100%" xlink:href="#g1018"/><use transform="translate(25.306 73.072)" width="100%" height="100%" xlink:href="#g1018"/><use transform="translate(25.306 87.686)" width="100%" height="100%" xlink:href="#g1018"/><use transform="translate(25.306 102.3)" width="100%" height="100%" xlink:href="#g1018"/><use transform="translate(25.306 116.91)" width="100%" height="100%" xlink:href="#g1018"/><use transform="translate(25.306 131.53)" width="100%" height="100%" xlink:href="#g1018"/><use transform="translate(25.306 146.14)" width="100%" height="100%" xlink:href="#g1018"/><use transform="translate(25.306 160.76)" width="100%" height="100%" xlink:href="#g1018"/><use transform="translate(25.306 175.37)" width="100%" height="100%" xlink:href="#g1018"/><use transform="translate(25.306 189.99)" width="100%" height="100%" xlink:href="#g1018"/><use transform="translate(25.306 204.6)" width="100%" height="100%" xlink:href="#g1018"/><use transform="translate(25.306 219.21)" width="100%" height="100%" xlink:href="#g1018"/><use transform="translate(25.306 233.83)" width="100%" height="100%" xlink:href="#g1018"/><use transform="translate(25.306 248.44)" width="100%" height="100%" xlink:href="#g1018"/><use transform="translate(50.613)" width="100%" height="100%" xlink:href="#g1018"/><use transform="translate(50.613 14.614)" width="100%" height="100%" xlink:href="#g1018"/><use transform="translate(50.613 29.229)" width="100%" height="100%" xlink:href="#g1018"/><use transform="translate(50.613 43.843)" width="100%" height="100%" xlink:href="#g1018"/><use transform="translate(50.613 58.457)" width="100%" height="100%" xlink:href="#g1018"/><use transform="translate(50.613 73.072)" width="100%" height="100%" xlink:href="#g1018"/><use transform="translate(50.613 87.686)" width="100%" height="100%" xlink:href="#g1018"/><use transform="translate(50.613 102.3)" width="100%" height="100%" xlink:href="#g1018"/><use transform="translate(50.613 116.91)" width="100%" height="100%" xlink:href="#g1018"/><use transform="translate(50.613 131.53)" width="100%" height="100%" xlink:href="#g1018"/><use transform="translate(50.613 146.14)" width="100%" height="100%" xlink:href="#g1018"/><use transform="translate(50.613 160.76)" width="100%" height="100%" xlink:href="#g1018"/><use transform="translate(50.613 175.37)" width="100%" height="100%" xlink:href="#g1018"/><use transform="translate(50.613 189.99)" width="100%" height="100%" xlink:href="#g1018"/><use transform="translate(50.613 204.6)" width="100%" height="100%" xlink:href="#g1018"/><use transform="translate(50.613 219.21)" width="100%" height="100%" xlink:href="#g1018"/><use transform="translate(50.613 233.83)" width="100%" height="100%" xlink:href="#g1018"/><use transform="translate(50.613 248.44)" width="100%" height="100%" xlink:href="#g1018"/><use transform="translate(75.919)" width="100%" height="100%" xlink:href="#g1018"/><use transform="translate(75.919 14.614)" width="100%" height="100%" xlink:href="#g1018"/><use transform="translate(75.919 29.229)" width="100%" height="100%" xlink:href="#g1018"/><use transform="translate(75.919 43.843)" width="100%" height="100%" xlink:href="#g1018"/><use transform="translate(75.919 58.457)" width="100%" height="100%" xlink:href="#g1018"/><use transform="translate(75.919 73.072)" width="100%" height="100%" xlink:href="#g1018"/><use transform="translate(75.919 87.686)" width="100%" height="100%" xlink:href="#g1018"/><use transform="translate(75.919 102.3)" width="100%" height="100%" xlink:href="#g1018"/><use transform="translate(75.919 116.91)" width="100%" height="100%" xlink:href="#g1018"/><use transform="translate(75.919 131.53)" width="100%" height="100%" xlink:href="#g1018"/><use transform="translate(75.919 146.14)" width="100%" height="100%" xlink:href="#g1018"/><use transform="translate(75.919 160.76)" width="100%" height="100%" xlink:href="#g1018"/><use transform="translate(75.919 175.37)" width="100%" height="100%" xlink:href="#g1018"/><use transform="translate(75.919 189.99)" width="100%" height="100%" xlink:href="#g1018"/><use transform="translate(75.919 204.6)" width="100%" height="100%" xlink:href="#g1018"/><use transform="translate(75.919 219.21)" width="100%" height="100%" xlink:href="#g1018"/><use transform="translate(75.919 233.83)" width="100%" height="100%" xlink:href="#g1018"/><use transform="translate(75.919 248.44)" width="100%" height="100%" xlink:href="#g1018"/><use transform="translate(101.23)" width="100%" height="100%" xlink:href="#g1018"/><use transform="translate(101.23 14.614)" width="100%" height="100%" xlink:href="#g1018"/><use transform="translate(101.23 29.229)" width="100%" height="100%" xlink:href="#g1018"/><use transform="translate(101.23 43.843)" width="100%" height="100%" xlink:href="#g1018"/><use transform="translate(101.23 58.457)" width="100%" height="100%" xlink:href="#g1018"/><use transform="translate(101.23 73.072)" width="100%" height="100%" xlink:href="#g1018"/><use transform="translate(101.23 87.686)" width="100%" height="100%" xlink:href="#g1018"/><use transform="translate(101.23 102.3)" width="100%" height="100%" xlink:href="#g1018"/><use transform="translate(101.23 116.91)" width="100%" height="100%" xlink:href="#g1018"/><use transform="translate(101.23 131.53)" width="100%" height="100%" xlink:href="#g1018"/><use transform="translate(101.23 146.14)" width="100%" height="100%" xlink:href="#g1018"/><use transform="translate(101.23 160.76)" width="100%" height="100%" xlink:href="#g1018"/><use transform="translate(101.23 175.37)" width="100%" height="100%" xlink:href="#g1018"/><use transform="translate(101.23 189.99)" width="100%" height="100%" xlink:href="#g1018"/><use transform="translate(101.23 204.6)" width="100%" height="100%" xlink:href="#g1018"/><use transform="translate(101.23 219.21)" width="100%" height="100%" xlink:href="#g1018"/><use transform="translate(101.23 233.83)" width="100%" height="100%" xlink:href="#g1018"/><use transform="translate(101.23 248.44)" width="100%" height="100%" xlink:href="#g1018"/><use transform="translate(126.53)" width="100%" height="100%" xlink:href="#g1018"/><use transform="translate(126.53 14.614)" width="100%" height="100%" xlink:href="#g1018"/><use transform="translate(126.53 29.229)" width="100%" height="100%" xlink:href="#g1018"/><use transform="translate(126.53 43.843)" width="100%" height="100%" xlink:href="#g1018"/><use transform="translate(126.53 58.457)" width="100%" height="100%" xlink:href="#g1018"/><use transform="translate(126.53 73.072)" width="100%" height="100%" xlink:href="#g1018"/><use transform="translate(126.53 87.686)" width="100%" height="100%" xlink:href="#g1018"/><use transform="translate(126.53 102.3)" width="100%" height="100%" xlink:href="#g1018"/><use transform="translate(126.53 116.91)" width="100%" height="100%" xlink:href="#g1018"/><use transform="translate(126.53 131.53)" width="100%" height="100%" xlink:href="#g1018"/><use transform="translate(126.53 146.14)" width="100%" height="100%" xlink:href="#g1018"/><use transform="translate(126.53 160.76)" width="100%" height="100%" xlink:href="#g1018"/><use transform="translate(126.53 175.37)" width="100%" height="100%" xlink:href="#g1018"/><use transform="translate(126.53 189.99)" width="100%" height="100%" xlink:href="#g1018"/><use transform="translate(126.53 204.6)" width="100%" height="100%" xlink:href="#g1018"/><use transform="translate(126.53 219.21)" width="100%" height="100%" xlink:href="#g1018"/><use transform="translate(126.53 233.83)" width="100%" height="100%" xlink:href="#g1018"/><use transform="translate(126.53 248.44)" width="100%" height="100%" xlink:href="#g1018"/><use transform="translate(151.84)" width="100%" height="100%" xlink:href="#g1018"/><use transform="translate(151.84 14.614)" width="100%" height="100%" xlink:href="#g1018"/><use transform="translate(151.84 29.229)" width="100%" height="100%" xlink:href="#g1018"/><use transform="translate(151.84 43.843)" width="100%" height="100%" xlink:href="#g1018"/><use transform="translate(151.84 58.457)" width="100%" height="100%" xlink:href="#g1018"/><use transform="translate(151.84 73.072)" width="100%" height="100%" xlink:href="#g1018"/><use transform="translate(151.84 87.686)" width="100%" height="100%" xlink:href="#g1018"/><use transform="translate(151.84 102.3)" width="100%" height="100%" xlink:href="#g1018"/><use transform="translate(151.84 116.91)" width="100%" height="100%" xlink:href="#g1018"/><use transform="translate(151.84 131.53)" width="100%" height="100%" xlink:href="#g1018"/><use transform="translate(151.84 146.14)" width="100%" height="100%" xlink:href="#g1018"/><use transform="translate(151.84 160.76)" width="100%" height="100%" xlink:href="#g1018"/><use transform="translate(151.84 175.37)" width="100%" height="100%" xlink:href="#g1018"/><use transform="translate(151.84 189.99)" width="100%" height="100%" xlink:href="#g1018"/><use transform="translate(151.84 204.6)" width="100%" height="100%" xlink:href="#g1018"/><use transform="translate(151.84 219.21)" width="100%" height="100%" xlink:href="#g1018"/><use transform="translate(151.84 233.83)" width="100%" height="100%" xlink:href="#g1018"/><use transform="translate(151.84 248.44)" width="100%" height="100%" xlink:href="#g1018"/></g><g transform="translate(-14.678 -14.613)" clip-path="url(#clipPath4000)"><g transform="matrix(1.3669 0 0 1.3669 -87.986 -90.903)" clip-path="url(#clipPath1032)"><path transform="scale(.75)" d="m104.26 100.55-4.1152 2.377 8.2285 4.75 8.2285-4.75-4.1152-2.377-4.1133 2.375z" fill="#ffd5d5" style="paint-order:stroke fill markers"/><path d="m78.194 86.103 3.0871 1.7816-4.79e-4 -7.1258-6.1709-3.5633-6.59e-4 3.5643 3.0851 1.781z" fill="#f00" style="paint-order:stroke fill markers"/><path d="m87.452 80.76-6.59e-4 -3.5643-6.1709 3.5633-4.79e-4 7.1258 3.0871-1.7816-1.28e-4 -3.5623z" fill="#500" style="paint-order:stroke fill markers"/><g transform="translate(-9.257 5.347)"><path transform="scale(.75)" d="m104.26 100.55-4.1152 2.377 8.2285 4.75 8.2285-4.75-4.1152-2.377-4.1133 2.375z" fill="#ffd5d5" style="paint-order:stroke fill markers"/><path d="m78.194 86.103 3.0871 1.7816-4.79e-4 -7.1258-6.1709-3.5633-6.59e-4 3.5643 3.0851 1.781z" fill="#f00" style="paint-order:stroke fill markers"/><path d="m87.452 80.76-6.59e-4 -3.5643-6.1709 3.5633-4.79e-4 7.1258 3.0871-1.7816-1.28e-4 -3.5623z" fill="#500" style="paint-order:stroke fill markers"/></g><g transform="translate(-.000958 10.691)"><path transform="scale(.75)" d="m104.26 100.55-4.1152 2.377 8.2285 4.75 8.2285-4.75-4.1152-2.377-4.1133 2.375z" fill="#ffd5d5" style="paint-order:stroke fill markers"/><path d="m78.194 86.103 3.0871 1.7816-4.79e-4 -7.1258-6.1709-3.5633-6.59e-4 3.5643 3.0851 1.781z" fill="#f00" style="paint-order:stroke fill markers"/><path d="m87.452 80.76-6.59e-4 -3.5643-6.1709 3.5633-4.79e-4 7.1258 3.0871-1.7816-1.28e-4 -3.5623z" fill="#500" style="paint-order:stroke fill markers"/></g><g transform="translate(9.2561 5.347)"><path transform="scale(.75)" d="m104.26 100.55-4.1152 2.377 8.2285 4.75 8.2285-4.75-4.1152-2.377-4.1133 2.375z" fill="#ffd5d5" style="paint-order:stroke fill markers"/><path d="m78.194 86.103 3.0871 1.7816-4.79e-4 -7.1258-6.1709-3.5633-6.59e-4 3.5643 3.0851 1.781z" fill="#f00" style="paint-order:stroke fill markers"/><path d="m87.452 80.76-6.59e-4 -3.5643-6.1709 3.5633-4.79e-4 7.1258 3.0871-1.7816-1.28e-4 -3.5623z" fill="#500" style="paint-order:stroke fill markers"/></g><g transform="translate(9.2574 -5.3453)"><path transform="scale(.75)" d="m104.26 100.55-4.1152 2.377 8.2285 4.75 8.2285-4.75-4.1152-2.377-4.1133 2.375z" fill="#ffd5d5" style="paint-order:stroke fill markers"/><path d="m78.194 86.103 3.0871 1.7816-4.79e-4 -7.1258-6.1709-3.5633-6.59e-4 3.5643 3.0851 1.781z" fill="#f00" style="paint-order:stroke fill markers"/><path d="m87.452 80.76-6.59e-4 -3.5643-6.1709 3.5633-4.79e-4 7.1258 3.0871-1.7816-1.28e-4 -3.5623z" fill="#500" style="paint-order:stroke fill markers"/></g><g transform="translate(0 -10.691)"><path transform="scale(.75)" d="m104.26 100.55-4.1152 2.377 8.2285 4.75 8.2285-4.75-4.1152-2.377-4.1133 2.375z" fill="#ffd5d5" style="paint-order:stroke fill markers"/><path d="m78.194 86.103 3.0871 1.7816-4.79e-4 -7.1258-6.1709-3.5633-6.59e-4 3.5643 3.0851 1.781z" fill="#f00" style="paint-order:stroke fill markers"/><path d="m87.452 80.76-6.59e-4 -3.5643-6.1709 3.5633-4.79e-4 7.1258 3.0871-1.7816-1.28e-4 -3.5623z" fill="#500" style="paint-order:stroke fill markers"/></g><g transform="translate(-9.2574 -5.3453)"><path transform="scale(.75)" d="m104.26 100.55-4.1152 2.377 8.2285 4.75 8.2285-4.75-4.1152-2.377-4.1133 2.375z" fill="#ffd5d5" style="paint-order:stroke fill markers"/><path d="m78.194 86.103 3.0871 1.7816-4.79e-4 -7.1258-6.1709-3.5633-6.59e-4 3.5643 3.0851 1.781z" fill="#f00" style="paint-order:stroke fill markers"/><path d="m87.452 80.76-6.59e-4 -3.5643-6.1709 3.5633-4.79e-4 7.1258 3.0871-1.7816-1.28e-4 -3.5623z" fill="#500" style="paint-order:stroke fill markers"/></g></g><use width="100%" height="100%" xlink:href="#g1018"/><use transform="translate(0 14.614)" width="100%" height="100%" xlink:href="#g1018"/><use transform="translate(0 29.229)" width="100%" height="100%" xlink:href="#g1018"/><use transform="translate(0 43.843)" width="100%" height="100%" xlink:href="#g1018"/><use transform="translate(0 58.457)" width="100%" height="100%" xlink:href="#g1018"/><use transform="translate(0 73.072)" width="100%" height="100%" xlink:href="#g1018"/><use transform="translate(0 87.686)" width="100%" height="100%" xlink:href="#g1018"/><use transform="translate(0 102.3)" width="100%" height="100%" xlink:href="#g1018"/><use transform="translate(0 116.91)" width="100%" height="100%" xlink:href="#g1018"/><use transform="translate(0 131.53)" width="100%" height="100%" xlink:href="#g1018"/><use transform="translate(0 146.14)" width="100%" height="100%" xlink:href="#g1018"/><use transform="translate(0 160.76)" width="100%" height="100%" xlink:href="#g1018"/><use transform="translate(0 175.37)" width="100%" height="100%" xlink:href="#g1018"/><use transform="translate(0 189.99)" width="100%" height="100%" xlink:href="#g1018"/><use transform="translate(0 204.6)" width="100%" height="100%" xlink:href="#g1018"/><use transform="translate(0 219.21)" width="100%" height="100%" xlink:href="#g1018"/><use transform="translate(0 233.83)" width="100%" height="100%" xlink:href="#g1018"/><use transform="translate(0 248.44)" width="100%" height="100%" xlink:href="#g1018"/><use transform="translate(25.306)" width="100%" height="100%" xlink:href="#g1018"/><use transform="translate(25.306 14.614)" width="100%" height="100%" xlink:href="#g1018"/><use transform="translate(25.306 29.229)" width="100%" height="100%" xlink:href="#g1018"/><use transform="translate(25.306 43.843)" width="100%" height="100%" xlink:href="#g1018"/><use transform="translate(25.306 58.457)" width="100%" height="100%" xlink:href="#g1018"/><use transform="translate(25.306 73.072)" width="100%" height="100%" xlink:href="#g1018"/><use transform="translate(25.306 87.686)" width="100%" height="100%" xlink:href="#g1018"/><use transform="translate(25.306 102.3)" width="100%" height="100%" xlink:href="#g1018"/><use transform="translate(25.306 116.91)" width="100%" height="100%" xlink:href="#g1018"/><use transform="translate(25.306 131.53)" width="100%" height="100%" xlink:href="#g1018"/><use transform="translate(25.306 146.14)" width="100%" height="100%" xlink:href="#g1018"/><use transform="translate(25.306 160.76)" width="100%" height="100%" xlink:href="#g1018"/><use transform="translate(25.306 175.37)" width="100%" height="100%" xlink:href="#g1018"/><use transform="translate(25.306 189.99)" width="100%" height="100%" xlink:href="#g1018"/><use transform="translate(25.306 204.6)" width="100%" height="100%" xlink:href="#g1018"/><use transform="translate(25.306 219.21)" width="100%" height="100%" xlink:href="#g1018"/><use transform="translate(25.306 233.83)" width="100%" height="100%" xlink:href="#g1018"/><use transform="translate(25.306 248.44)" width="100%" height="100%" xlink:href="#g1018"/><use transform="translate(50.613)" width="100%" height="100%" xlink:href="#g1018"/><use transform="translate(50.613 14.614)" width="100%" height="100%" xlink:href="#g1018"/><use transform="translate(50.613 29.229)" width="100%" height="100%" xlink:href="#g1018"/><use transform="translate(50.613 43.843)" width="100%" height="100%" xlink:href="#g1018"/><use transform="translate(50.613 58.457)" width="100%" height="100%" xlink:href="#g1018"/><use transform="translate(50.613 73.072)" width="100%" height="100%" xlink:href="#g1018"/><use transform="translate(50.613 87.686)" width="100%" height="100%" xlink:href="#g1018"/><use transform="translate(50.613 102.3)" width="100%" height="100%" xlink:href="#g1018"/><use transform="translate(50.613 116.91)" width="100%" height="100%" xlink:href="#g1018"/><use transform="translate(50.613 131.53)" width="100%" height="100%" xlink:href="#g1018"/><use transform="translate(50.613 146.14)" width="100%" height="100%" xlink:href="#g1018"/><use transform="translate(50.613 160.76)" width="100%" height="100%" xlink:href="#g1018"/><use transform="translate(50.613 175.37)" width="100%" height="100%" xlink:href="#g1018"/><use transform="translate(50.613 189.99)" width="100%" height="100%" xlink:href="#g1018"/><use transform="translate(50.613 204.6)" width="100%" height="100%" xlink:href="#g1018"/><use transform="translate(50.613 219.21)" width="100%" height="100%" xlink:href="#g1018"/><use transform="translate(50.613 233.83)" width="100%" height="100%" xlink:href="#g1018"/><use transform="translate(50.613 248.44)" width="100%" height="100%" xlink:href="#g1018"/><use transform="translate(75.919)" width="100%" height="100%" xlink:href="#g1018"/><use transform="translate(75.919 14.614)" width="100%" height="100%" xlink:href="#g1018"/><use transform="translate(75.919 29.229)" width="100%" height="100%" xlink:href="#g1018"/><use transform="translate(75.919 43.843)" width="100%" height="100%" xlink:href="#g1018"/><use transform="translate(75.919 58.457)" width="100%" height="100%" xlink:href="#g1018"/><use transform="translate(75.919 73.072)" width="100%" height="100%" xlink:href="#g1018"/><use transform="translate(75.919 87.686)" width="100%" height="100%" xlink:href="#g1018"/><use transform="translate(75.919 102.3)" width="100%" height="100%" xlink:href="#g1018"/><use transform="translate(75.919 116.91)" width="100%" height="100%" xlink:href="#g1018"/><use transform="translate(75.919 131.53)" width="100%" height="100%" xlink:href="#g1018"/><use transform="translate(75.919 146.14)" width="100%" height="100%" xlink:href="#g1018"/><use transform="translate(75.919 160.76)" width="100%" height="100%" xlink:href="#g1018"/><use transform="translate(75.919 175.37)" width="100%" height="100%" xlink:href="#g1018"/><use transform="translate(75.919 189.99)" width="100%" height="100%" xlink:href="#g1018"/><use transform="translate(75.919 204.6)" width="100%" height="100%" xlink:href="#g1018"/><use transform="translate(75.919 219.21)" width="100%" height="100%" xlink:href="#g1018"/><use transform="translate(75.919 233.83)" width="100%" height="100%" xlink:href="#g1018"/><use transform="translate(75.919 248.44)" width="100%" height="100%" xlink:href="#g1018"/><use transform="translate(101.23)" width="100%" height="100%" xlink:href="#g1018"/><use transform="translate(101.23 14.614)" width="100%" height="100%" xlink:href="#g1018"/><use transform="translate(101.23 29.229)" width="100%" height="100%" xlink:href="#g1018"/><use transform="translate(101.23 43.843)" width="100%" height="100%" xlink:href="#g1018"/><use transform="translate(101.23 58.457)" width="100%" height="100%" xlink:href="#g1018"/><use transform="translate(101.23 73.072)" width="100%" height="100%" xlink:href="#g1018"/><use transform="translate(101.23 87.686)" width="100%" height="100%" xlink:href="#g1018"/><use transform="translate(101.23 102.3)" width="100%" height="100%" xlink:href="#g1018"/><use transform="translate(101.23 116.91)" width="100%" height="100%" xlink:href="#g1018"/><use transform="translate(101.23 131.53)" width="100%" height="100%" xlink:href="#g1018"/><use transform="translate(101.23 146.14)" width="100%" height="100%" xlink:href="#g1018"/><use transform="translate(101.23 160.76)" width="100%" height="100%" xlink:href="#g1018"/><use transform="translate(101.23 175.37)" width="100%" height="100%" xlink:href="#g1018"/><use transform="translate(101.23 189.99)" width="100%" height="100%" xlink:href="#g1018"/><use transform="translate(101.23 204.6)" width="100%" height="100%" xlink:href="#g1018"/><use transform="translate(101.23 219.21)" width="100%" height="100%" xlink:href="#g1018"/><use transform="translate(101.23 233.83)" width="100%" height="100%" xlink:href="#g1018"/><use transform="translate(101.23 248.44)" width="100%" height="100%" xlink:href="#g1018"/><use transform="translate(126.53)" width="100%" height="100%" xlink:href="#g1018"/><use transform="translate(126.53 14.614)" width="100%" height="100%" xlink:href="#g1018"/><use transform="translate(126.53 29.229)" width="100%" height="100%" xlink:href="#g1018"/><use transform="translate(126.53 43.843)" width="100%" height="100%" xlink:href="#g1018"/><use transform="translate(126.53 58.457)" width="100%" height="100%" xlink:href="#g1018"/><use transform="translate(126.53 73.072)" width="100%" height="100%" xlink:href="#g1018"/><use transform="translate(126.53 87.686)" width="100%" height="100%" xlink:href="#g1018"/><use transform="translate(126.53 102.3)" width="100%" height="100%" xlink:href="#g1018"/><use transform="translate(126.53 116.91)" width="100%" height="100%" xlink:href="#g1018"/><use transform="translate(126.53 131.53)" width="100%" height="100%" xlink:href="#g1018"/><use transform="translate(126.53 146.14)" width="100%" height="100%" xlink:href="#g1018"/><use transform="translate(126.53 160.76)" width="100%" height="100%" xlink:href="#g1018"/><use transform="translate(126.53 175.37)" width="100%" height="100%" xlink:href="#g1018"/><use transform="translate(126.53 189.99)" width="100%" height="100%" xlink:href="#g1018"/><use transform="translate(126.53 204.6)" width="100%" height="100%" xlink:href="#g1018"/><use transform="translate(126.53 219.21)" width="100%" height="100%" xlink:href="#g1018"/><use transform="translate(126.53 233.83)" width="100%" height="100%" xlink:href="#g1018"/><use transform="translate(126.53 248.44)" width="100%" height="100%" xlink:href="#g1018"/><use transform="translate(151.84)" width="100%" height="100%" xlink:href="#g1018"/><use transform="translate(151.84 14.614)" width="100%" height="100%" xlink:href="#g1018"/><use transform="translate(151.84 29.229)" width="100%" height="100%" xlink:href="#g1018"/><use transform="translate(151.84 43.843)" width="100%" height="100%" xlink:href="#g1018"/><use transform="translate(151.84 58.457)" width="100%" height="100%" xlink:href="#g1018"/><use transform="translate(151.84 73.072)" width="100%" height="100%" xlink:href="#g1018"/><use transform="translate(151.84 87.686)" width="100%" height="100%" xlink:href="#g1018"/><use transform="translate(151.84 102.3)" width="100%" height="100%" xlink:href="#g1018"/><use transform="translate(151.84 116.91)" width="100%" height="100%" xlink:href="#g1018"/><use transform="translate(151.84 131.53)" width="100%" height="100%" xlink:href="#g1018"/><use transform="translate(151.84 146.14)" width="100%" height="100%" xlink:href="#g1018"/><use transform="translate(151.84 160.76)" width="100%" height="100%" xlink:href="#g1018"/><use transform="translate(151.84 175.37)" width="100%" height="100%" xlink:href="#g1018"/><use transform="translate(151.84 189.99)" width="100%" height="100%" xlink:href="#g1018"/><use transform="translate(151.84 204.6)" width="100%" height="100%" xlink:href="#g1018"/><use transform="translate(151.84 219.21)" width="100%" height="100%" xlink:href="#g1018"/><use transform="translate(151.84 233.83)" width="100%" height="100%" xlink:href="#g1018"/><use transform="translate(151.84 248.44)" width="100%" height="100%" xlink:href="#g1018"/></g></svg>
