<?xml version="1.0" encoding="UTF-8"?>
<!-- Created with Inkscape (http://www.inkscape.org/) -->
<svg width="32.695mm" height="66.971mm" version="1.1" viewBox="0 0 32.695 66.971" xmlns="http://www.w3.org/2000/svg" xmlns:cc="http://creativecommons.org/ns#" xmlns:dc="http://purl.org/dc/elements/1.1/" xmlns:rdf="http://www.w3.org/1999/02/22-rdf-syntax-ns#">
 <defs>
  <linearGradient id="linearGradient1028" x1="-99.67" x2="-83.679" y1="109.26" y2="138.13" gradientTransform="translate(62.675,-3.3409)" gradientUnits="userSpaceOnUse">
   <stop stop-color="#f84949" offset="0"/>
   <stop stop-color="#f50000" offset="1"/>
  </linearGradient>
  <linearGradient id="linearGradient1038" x1="-70.217" x2="-59.145" y1="83.833" y2="96.495" gradientTransform="matrix(.85754 0 0 .85754 28.46 13.541)" gradientUnits="userSpaceOnUse">
   <stop stop-color="#f84545" offset="0"/>
   <stop stop-color="#f50000" offset="1"/>
  </linearGradient>
 </defs>
 <metadata>
  <rdf:RDF>
   <cc:Work rdf:about="">
    <dc:format>image/svg+xml</dc:format>
    <dc:type rdf:resource="http://purl.org/dc/dcmitype/StillImage"/>
    <dc:title/>
   </cc:Work>
  </rdf:RDF>
 </metadata>
 <g transform="translate(41.004 -82.223)">
  <path d="m-38.169 103.27h27.025c1.5705 0 2.8348 1.2643 2.8348 2.8348v40.254c0 1.5705-1.2643 2.8348-2.8348 2.8348h-27.025c-1.5705 0-2.8348-1.2643-2.8348-2.8348v-40.254c0-1.5705 1.2643-2.8348 2.8348-2.8348z" fill="url(#linearGradient1028)" style="paint-order:stroke fill markers"/>
  <path d="m-31.835 82.223h14.356c1.3468 0 2.431 1.0842 2.431 2.431v14.356c0 1.3468-1.0842 2.431-2.431 2.431h-14.356c-1.3468 0-2.431-1.0842-2.431-2.431v-14.356c0-1.3468 1.0842-2.431 2.431-2.431z" fill="url(#linearGradient1038)" style="paint-order:stroke fill markers"/>
 </g>
</svg>
